{"title":"Black Mass (2015) HC WEBRip 1080p x264 AAC - SS","uid":12519454,"size":2379231169,"categoryP":"video","categoryS":"movies","magnet":"?xt=urn:btih:577c84c8a3ad07a0152eec810fa54ee54ec679d0&amp;dn=Black+Mass+%282015%29+HC+WEBRip+1080p+x264+AAC+-+SS&amp;tr=udp%3A%2F%2Ftracker.leechers-paradise.org%3A6969&amp;tr=udp%3A%2F%2Fzer0day.ch%3A1337&amp;tr=udp%3A%2F%2Fopen.demonii.com%3A1337&amp;tr=udp%3A%2F%2Ftracker.coppersurfer.tk%3A6969&amp;tr=udp%3A%2F%2Fexodus.desync.com%3A6969","seeders":0,"leechers":0,"uploader":"tykoon123","files":2,"time":1443837485,"description":"http://www.imgpuppy.com/image/ISAt\r\n\r\nInfo: \r\nFormat                                   : MPEG-4 \r\nFormat profile                           : Base Media \r\nCodec ID                                 : isom \r\nFile size                                : 2.22 GiB \r\nDuration                                 : 2h 2mn \r\nOverall bit rate mode                    : Variable \r\nOverall bit rate                         : 2 589 Kbps \r\nWriting application                      : Lavf56.25.101 \r\n\r\nVideo \r\nID                                       : 1 \r\nFormat                                   : AVC \r\nFormat/Info                              : Advanced Video Codec \r\nFormat profile                           :    \r\nFormat settings, CABAC                   : Yes \r\nFormat settings, ReFrames                : 4 frames \r\nCodec ID                                 : avc1 \r\nCodec ID/Info                            : Advanced Video Coding \r\nDuration                                 : 2h 2mn \r\nBit rate                                 : 2 491 Kbps \r\nWidth                                    : 1 920 pixels \r\nHeight                                   : 800 pixels \r\nDisplay aspect ratio                     : 2.40:1 \r\nFrame rate mode                          : Variable \r\nFrame rate                               : 23.976 fps \r\nMinimum frame rate                       : 3.996 fps \r\nMaximum frame rate                       : 23.976 fps \r\nColor space                              : YUV \r\nChroma subsampling                       : 4:2:0 \r\nBit depth                                : 8 bits \r\nScan type                                : Progressive \r\nBits/(Pixel*Frame)                       : 0.068 \r\nStream size                              : 2.13 GiB (96%) \r\n\r\nAudio \r\nID                                       : 2 \r\nFormat                                   : AAC \r\nFormat/Info                              : Advanced Audio Codec \r\nFormat profile                           : HE-AAC / LC \r\nCodec ID                                 : 40 \r\nDuration                                 : 2h 2mn \r\nBit rate mode                            : Variable \r\nBit rate                                 : 92.8 Kbps \r\nMaximum bit rate                         : 128 Kbps \r\nChannel(s)                               : 2 channels \r\nChannel positions                        : Front: L R \r\nSampling rate                            : 48.0 KHz / 24.0 KHz \r\nCompression mode                         : Lossy \r\nStream size                              : 81.4 MiB (4%) \r\nLanguage                                 : unk \r\n\r\nScreens: \nhttp://www.imgpuppy.com/image/IvSQ  \nhttp://www.imgpuppy.com/image/IWqT  \nhttp://www.imgpuppy.com/image/I4KX  \nhttp://www.imgpuppy.com/image/ID6W  \nhttp://www.imgpuppy.com/image/IMtx","torrent":{"xt":"urn:btih:577c84c8a3ad07a0152eec810fa54ee54ec679d0","amp;dn":"Black+Mass+%282015%29+HC+WEBRip+1080p+x264+AAC+-+SS","amp;tr":["udp%3A%2F%2Ftracker.leechers-paradise.org%3A6969","udp%3A%2F%2Fzer0day.ch%3A1337","udp%3A%2F%2Fopen.demonii.com%3A1337","udp%3A%2F%2Ftracker.coppersurfer.tk%3A6969","udp%3A%2F%2Fexodus.desync.com%3A6969"],"infoHash":"577c84c8a3ad07a0152eec810fa54ee54ec679d0","infoHashBuffer":{"type":"Buffer","data":[87,124,132,200,163,173,7,160,21,46,236,129,15,165,78,229,78,198,121,208]},"announce":[],"urlList":[]}}